<svg width="360" height="360" viewBox="0 0 360 360" fill="none" xmlns="http://www.w3.org/2000/svg">
<rect width="360" height="360" fill="white"/>
<path d="M251.076 134.924C253.14 134.924 254.172 136.644 254.172 140.084C254.172 143.524 253.025 150.117 250.732 159.864C248.553 169.611 244.655 182.797 239.036 199.424C233.532 216.051 227.856 229.581 222.008 240.016C223.728 239.901 226.767 239.787 231.124 239.672C235.596 239.557 239.208 239.443 241.96 239.328C244.827 239.213 248.209 238.812 252.108 238.124C256.121 237.551 259.389 236.691 261.912 235.544C267.989 232.677 271.544 228.435 272.576 222.816C272.347 221.325 272.404 220.465 272.748 220.236C273.207 220.121 273.551 220.351 273.78 220.924C274.583 222.415 274.984 224.02 274.984 225.74C274.984 227.46 274.067 229.811 272.232 232.792C270.397 235.888 266.785 238.525 261.396 240.704C256.007 242.997 242.017 244.259 219.428 244.488C213.924 252.744 206.929 260.025 198.444 266.332C190.073 272.639 181.187 277.569 171.784 281.124C162.381 284.679 154.412 286.456 147.876 286.456C141.455 286.456 136.008 285.711 131.536 284.22C122.936 281.353 118.636 276.996 118.636 271.148C118.636 263.58 125.573 256.929 139.448 251.196C157.221 243.857 181.989 240.188 213.752 240.188C224.989 212.668 232.844 190.48 237.316 173.624C226.881 196.099 215.243 211.693 202.4 220.408C195.635 224.995 189.099 227.288 182.792 227.288C176.485 227.288 171.555 225.568 168 222.128C164.56 218.688 162.84 213.987 162.84 208.024C162.84 195.525 171.325 175.459 188.296 147.824C193.571 139.224 197.813 130.509 201.024 121.68C204.693 111.933 206.528 103.563 206.528 96.568C206.528 89.5733 204.235 84.5853 199.648 81.604C195.176 78.6227 189.729 77.132 183.308 77.132C180.785 77.132 178.091 77.4187 175.224 77.992C154.584 81.8907 135.951 92.612 119.324 110.156C110.953 118.985 104.819 128.044 100.92 137.332C96.9067 147.308 94.9 155.851 94.9 162.96C94.9 165.941 95.3013 168.693 96.104 171.216C98.3973 179.587 102.927 185.32 109.692 188.416C113.132 189.907 116.687 190.652 120.356 190.652C133.084 190.652 143.92 183.543 152.864 169.324C157.909 161.183 160.432 154.073 160.432 147.996C160.432 140.084 156.877 136.128 149.768 136.128C148.392 136.128 146.729 136.357 144.78 136.816C142.831 137.16 141.799 136.988 141.684 136.3C141.569 135.383 142.888 134.58 145.64 133.892C148.392 133.204 151.029 132.86 153.552 132.86C159.515 132.86 163.528 135.383 165.592 140.428C166.509 142.607 166.968 144.957 166.968 147.48C166.968 152.525 165.191 158.373 161.636 165.024C154.641 177.752 144.379 186.925 130.848 192.544C126.72 194.264 122.936 195.124 119.496 195.124C108.373 195.124 99.6587 191.111 93.352 183.084C87.848 176.319 85.096 168.579 85.096 159.864C85.096 151.149 87.2173 142.435 91.46 133.72C95.7027 125.005 101.207 116.979 107.972 109.64C114.852 102.301 122.191 96.1093 129.988 91.064C137.785 86.0187 145.984 81.8333 154.584 78.508C163.643 74.9533 171.956 73.176 179.524 73.176C187.092 73.176 193.8 74.3227 199.648 76.616C205.725 79.368 210.025 83.0947 212.548 87.796C215.071 92.3827 216.332 97.256 216.332 102.416C216.332 115.373 211.573 129.764 202.056 145.588C187.264 170.815 178.32 190.423 175.224 204.412C174.765 206.82 174.536 209.343 174.536 211.98C174.536 214.617 175.396 217.083 177.116 219.376C178.836 221.669 181.359 222.816 184.684 222.816C189.385 222.816 194.488 220.809 199.992 216.796C206.528 212.209 213.064 204.699 219.6 194.264C230.493 176.835 238.692 159.004 244.196 140.772C244.54 138.937 245.572 137.504 247.292 136.472C249.012 135.44 250.273 134.924 251.076 134.924ZM127.924 272.868C127.924 273.785 128.153 274.703 128.612 275.62C131.02 279.519 136.524 281.468 145.124 281.468C153.839 281.468 162.095 280.035 169.892 277.168C177.804 274.301 185.487 270.059 192.94 264.44C200.393 258.936 206.528 252.285 211.344 244.488C181.301 244.488 158.253 249.132 142.2 258.42C132.683 263.924 127.924 268.74 127.924 272.868Z" fill="black"/>
</svg>
